# xmcd CD database file
#
# Track frame offsets:
#	150
#	24315
#	56357
#	76377
#	98130
#	124995
#	144505
#	175480
#	198197
#	223772
#
# Disc length: 3364 seconds
#
# Revision: 0
# Processed by: cddbd v1.5.1PL0 Copyright (c) Steve Scherf et al.
# Submitted via: CDex 1.51
#
DISCID=880d220a
DTITLE=Lewis Nash - Stompin' At  The Savoy
DYEAR=2005
DGENRE=Jazz
TTITLE0=stonpin' at the savoy
TTITLE1=delilah
TTITLE2=get happy
TTITLE3=i thought abput you
TTITLE4=invitation
TTITLE5=tickle toe
TTITLE6=jitterbug waltz
TTITLE7=these foolish thing
TTITLE8=robbin's nest
TTITLE9=flanagan's  shenanigans
EXTD=YEAR: 2005
EXTT0=
EXTT1=
EXTT2=
EXTT3=
EXTT4=
EXTT5=
EXTT6=
EXTT7=
EXTT8=
EXTT9=
PLAYORDER=
